<svg width="21" height="20" viewBox="0 0 21 20" fill="none" xmlns="http://www.w3.org/2000/svg">
<g id="Arrow - Right">
<path id="Union" fill-rule="evenodd" clip-rule="evenodd" d="M10.8033 4.46967C11.0962 4.17678 11.5711 4.17678 11.864 4.46967L16.864 9.46967C17.0046 9.61032 17.0837 9.80109 17.0837 10C17.0837 10.1989 17.0046 10.3897 16.864 10.5303L11.864 15.5303C11.5711 15.8232 11.0962 15.8232 10.8033 15.5303C10.5104 15.2374 10.5104 14.7626 10.8033 14.4697L14.523 10.75H4.66699C4.25278 10.75 3.91699 10.4142 3.91699 10C3.91699 9.58579 4.25278 9.25 4.66699 9.25H14.523L10.8033 5.53033C10.5104 5.23744 10.5104 4.76256 10.8033 4.46967Z" fill="#0072BC"/>
</g>
</svg>
