<svg width="44" height="34" viewBox="0 0 44 34" fill="none" xmlns="http://www.w3.org/2000/svg">
<path d="M23.37 25.2838H31.7359L28.8211 21.8679V15.5372C28.8214 13.9837 28.2899 12.477 27.3149 11.2675C26.3399 10.0581 24.9802 9.21889 23.462 8.88951V8.23496C23.462 7.84708 23.308 7.47509 23.0337 7.20082C22.7594 6.92655 22.3874 6.77246 21.9995 6.77246C21.6117 6.77246 21.2397 6.92655 20.9654 7.20082C20.6911 7.47509 20.537 7.84708 20.537 8.23496V8.88951C19.0189 9.21889 17.6592 10.0581 16.6842 11.2675C15.7092 12.477 15.1777 13.9837 15.178 15.5372V21.8679L12.2632 25.2838H23.37Z" stroke="#585866" strokeWidth="0.872727" strokeLinecap="round" strokeLinejoin="round"/>
<path d="M23.4612 25.7644C23.4612 26.1523 23.3071 26.5242 23.0328 26.7985C22.7585 27.0728 22.3865 27.2269 21.9987 27.2269C21.6108 27.2269 21.2388 27.0728 20.9645 26.7985C20.6902 26.5242 20.5362 26.1523 20.5362 25.7644C20.5351 25.5997 20.5664 25.4363 20.6282 25.2837H23.3691C23.431 25.4363 23.4622 25.5997 23.4612 25.7644Z" fill="#585866"/>
</svg>
