<svg width="28" height="22" viewBox="0 0 28 22" fill="none" xmlns="http://www.w3.org/2000/svg">
<g filter="url(#filter0_d_15554_18043)">
<g clip-path="url(#clip0_15554_18043)">
<mask id="mask0_15554_18043" style="mask-type:luminance" maskUnits="userSpaceOnUse" x="4" y="1" width="20" height="15">
<rect x="4" y="1" width="20" height="15" fill="white"/>
</mask>
<g mask="url(#mask0_15554_18043)">
<path fill-rule="evenodd" clip-rule="evenodd" d="M4 1H24V16H4V1Z" fill="#E31D1C"/>
<path fill-rule="evenodd" clip-rule="evenodd" d="M4 2.25V3.5H24V2.25H4ZM4 4.75V6H24V4.75H4ZM4 8.5V7.25H24V8.5H4ZM4 9.75V11H24V9.75H4ZM4 13.5V12.25H24V13.5H4ZM4 16V14.75H24V16H4Z" fill="#F7FCFF"/>
<rect x="4" y="1" width="11.25" height="8.75" fill="#2E42A5"/>
<path fill-rule="evenodd" clip-rule="evenodd" d="M5.30025 3.71767L5.96265 3.25626L6.47647 3.62617H6.18555L6.77388 4.14655L6.57517 4.87617H6.26393L5.96172 4.20605L5.70399 4.87617H4.93555L5.52388 5.39655L5.30025 6.21767L5.96265 5.75626L6.47647 6.12617H6.18555L6.77388 6.64655L6.57517 7.37617H6.26393L5.96172 6.70605L5.70399 7.37617H4.93555L5.52388 7.89655L5.30025 8.71767L5.96265 8.25626L6.60357 8.71767L6.4043 7.89655L6.91901 7.37617H6.6816L7.21265 7.00626L7.72647 7.37617H7.43555L8.02388 7.89655L7.80025 8.71767L8.46265 8.25626L9.10357 8.71767L8.9043 7.89655L9.41901 7.37617H9.1816L9.71265 7.00626L10.2265 7.37617H9.93555L10.5239 7.89655L10.3002 8.71767L10.9626 8.25626L11.6036 8.71767L11.4043 7.89655L11.919 7.37617H11.6816L12.2126 7.00626L12.7265 7.37617H12.4355L13.0239 7.89655L12.8002 8.71767L13.4626 8.25626L14.1036 8.71767L13.9043 7.89655L14.419 7.37617H13.7639L13.4617 6.70605L13.204 7.37617H12.8314L12.6543 6.64655L13.169 6.12617H12.9316L13.4626 5.75626L14.1036 6.21767L13.9043 5.39655L14.419 4.87617H13.7639L13.4617 4.20605L13.204 4.87617H12.8314L12.6543 4.14655L13.169 3.62617H12.9316L13.4626 3.25626L14.1036 3.71767L13.9043 2.89655L14.419 2.37617H13.7639L13.4617 1.70605L13.204 2.37617H12.4355L13.0239 2.89655L12.8252 3.62617H12.5139L12.2117 2.95605L11.954 3.62617H11.5814L11.4043 2.89655L11.919 2.37617H11.2639L10.9617 1.70605L10.704 2.37617H9.93555L10.5239 2.89655L10.3252 3.62617H10.0139L9.71172 2.95605L9.45399 3.62617H9.08136L8.9043 2.89655L9.41901 2.37617H8.76393L8.46172 1.70605L8.20399 2.37617H7.43555L8.02388 2.89655L7.82517 3.62617H7.51393L7.21172 2.95605L6.95399 3.62617H6.58136L6.4043 2.89655L6.91901 2.37617H6.26393L5.96172 1.70605L5.70399 2.37617H4.93555L5.52388 2.89655L5.30025 3.71767ZM12.8252 6.12617L13.0239 5.39655L12.4355 4.87617H12.7265L12.2126 4.50626L11.6816 4.87617H11.919L11.4043 5.39655L11.5814 6.12617H11.954L12.2117 5.45605L12.5139 6.12617H12.8252ZM11.4765 6.12617L10.9626 5.75626L10.4316 6.12617H10.669L10.1543 6.64655L10.3314 7.37617H10.704L10.9617 6.70605L11.2639 7.37617H11.5752L11.7739 6.64655L11.1855 6.12617H11.4765ZM9.27388 6.64655L9.07517 7.37617H8.76393L8.46172 6.70605L8.20399 7.37617H7.83136L7.6543 6.64655L8.16901 6.12617H7.9316L8.46265 5.75626L8.97647 6.12617H8.68555L9.27388 6.64655ZM9.45399 6.12617H9.08136L8.9043 5.39655L9.41901 4.87617H9.1816L9.71265 4.50626L10.2265 4.87617H9.93555L10.5239 5.39655L10.3252 6.12617H10.0139L9.71172 5.45605L9.45399 6.12617ZM7.82517 6.12617L8.02388 5.39655L7.43555 4.87617H7.72647L7.21265 4.50626L6.6816 4.87617H6.91901L6.4043 5.39655L6.58136 6.12617H6.95399L7.21172 5.45605L7.51393 6.12617H7.82517ZM11.7739 4.14655L11.5752 4.87617H11.2639L10.9617 4.20605L10.704 4.87617H10.3314L10.1543 4.14655L10.669 3.62617H10.4316L10.9626 3.25626L11.4765 3.62617H11.1855L11.7739 4.14655ZM8.97647 3.62617L8.46265 3.25626L7.9316 3.62617H8.16901L7.6543 4.14655L7.83136 4.87617H8.20399L8.46172 4.20605L8.76393 4.87617H9.07517L9.27388 4.14655L8.68555 3.62617H8.97647Z" fill="#F7FCFF"/>
</g>
<rect x="3" y="1" width="22" height="16" fill="url(#paint0_linear_15554_18043)" style="mix-blend-mode:overlay"/>
</g>
<rect x="3.5" y="1.5" width="21" height="15" rx="1" stroke="black" stroke-opacity="0.1" style="mix-blend-mode:multiply"/>
</g>
<defs>
<filter id="filter0_d_15554_18043" x="0" y="0" width="28" height="22" filterUnits="userSpaceOnUse" color-interpolation-filters="sRGB">
<feFlood flood-opacity="0" result="BackgroundImageFix"/>
<feColorMatrix in="SourceAlpha" type="matrix" values="0 0 0 0 0 0 0 0 0 0 0 0 0 0 0 0 0 0 127 0" result="hardAlpha"/>
<feOffset dy="2"/>
<feGaussianBlur stdDeviation="1.5"/>
<feColorMatrix type="matrix" values="0 0 0 0 0 0 0 0 0 0 0 0 0 0 0 0 0 0 0.1 0"/>
<feBlend mode="normal" in2="BackgroundImageFix" result="effect1_dropShadow_15554_18043"/>
<feBlend mode="normal" in="SourceGraphic" in2="effect1_dropShadow_15554_18043" result="shape"/>
</filter>
<linearGradient id="paint0_linear_15554_18043" x1="14" y1="1" x2="14" y2="17" gradientUnits="userSpaceOnUse">
<stop stop-color="white" stop-opacity="0.7"/>
<stop offset="1" stop-opacity="0.3"/>
</linearGradient>
<clipPath id="clip0_15554_18043">
<rect x="3" y="1" width="22" height="16" rx="1.5" fill="white"/>
</clipPath>
</defs>
</svg>
