<svg width="233" height="44" viewBox="0 0 233 44" fill="none" xmlns="http://www.w3.org/2000/svg">
<g id="NS Logo (1) 3" clip-path="url(#clip0_15513_7477)">
<path id="Vector" d="M0 34.4202V1.80615H8.6455L15.4935 13.7675C17.4623 17.2096 19.3454 21.2541 20.8862 24.9544H20.9718C20.5438 20.6517 20.3726 16.2631 20.3726 11.358V1.80615H27.2205V34.4202H19.4309L12.4119 21.8565C10.4431 18.3283 8.3031 14.1978 6.67672 10.3254H6.50553C6.76232 14.6281 6.84792 19.2749 6.84792 24.6101V34.4202H0Z" fill="#0072BC"/>
<path id="Vector_2" d="M41.1749 4.13093C41.1749 6.1962 39.6342 7.8312 37.1518 7.8312C34.8406 7.8312 33.2998 6.1962 33.2998 4.13093C33.2998 2.06567 34.8406 0.430664 37.2374 0.430664C39.6342 0.430664 41.0893 1.97961 41.1749 4.13093ZM33.471 34.4215V10.6709H40.9181V34.3354H33.471V34.4215Z" fill="#0072BC"/>
<path id="Vector_3" d="M64.7976 33.8197C63.428 34.4221 60.9456 34.9383 58.1209 34.9383C50.417 34.9383 45.4521 30.2915 45.4521 22.8049C45.4521 15.9207 50.2458 10.2412 59.0624 10.2412C61.0312 10.2412 63.1712 10.5854 64.712 11.1878L63.5136 16.6951C62.6576 16.265 61.288 15.9207 59.3193 15.9207C55.3817 15.9207 52.8993 18.6744 52.8993 22.5468C52.8993 26.9355 55.8097 29.1729 59.4049 29.1729C61.2024 29.1729 62.572 28.8287 63.6849 28.3984L64.7976 33.8197Z" fill="#0072BC"/>
<path id="Vector_4" d="M68.8242 0H76.2713V13.5103H76.3569C77.1274 12.4777 78.0689 11.7032 79.2674 11.1008C80.3801 10.4984 81.7497 10.1542 83.1193 10.1542C87.8272 10.1542 91.508 13.4243 91.508 20.5666V34.4211H84.0609V21.3412C84.0609 18.2432 82.9481 16.0918 80.2089 16.0918C78.2401 16.0918 77.0418 17.3827 76.5282 18.6735C76.3569 19.1038 76.2713 19.7921 76.2713 20.3085V34.3351H68.8242V0Z" fill="#0072BC"/>
<path id="Vector_5" d="M120.95 22.2887C120.95 30.98 114.787 34.9384 108.367 34.9384C101.434 34.9384 96.041 30.3777 96.041 22.719C96.041 15.0603 101.091 10.1553 108.795 10.1553C116.157 10.1553 120.95 15.1463 120.95 22.2887ZM103.745 22.5469C103.745 26.5914 105.457 29.6892 108.624 29.6892C111.534 29.6892 113.332 26.8496 113.332 22.5469C113.332 19.0187 111.962 15.4906 108.624 15.4906C105.029 15.4045 103.745 19.0187 103.745 22.5469Z" fill="#0072BC"/>
<path id="Vector_6" d="M126.087 26.7627C128.055 27.7952 131.137 28.828 134.304 28.828C137.728 28.828 139.525 27.451 139.525 25.2998C139.525 23.3206 137.985 22.1158 134.047 20.7389C128.569 18.8458 124.974 15.834 124.974 11.101C124.974 5.5076 129.682 1.29102 137.386 1.29102C141.153 1.29102 143.806 2.06549 145.774 2.92602L144.148 8.86366C142.863 8.26129 140.468 7.31471 137.3 7.31471C134.047 7.31471 132.507 8.77762 132.507 10.4987C132.507 12.5639 134.304 13.5105 138.584 15.0594C144.404 17.2108 147.059 20.2226 147.059 24.8695C147.059 30.2908 142.863 35.0237 133.791 35.0237C130.024 35.0237 126.343 33.9911 124.546 32.9585L126.087 26.7627Z" fill="#2AAC27"/>
<path id="Vector_7" d="M151.683 0H159.13V13.5103H159.215C159.986 12.4777 160.927 11.7032 162.125 11.1008C163.239 10.4984 164.607 10.1542 165.977 10.1542C170.686 10.1542 174.366 13.4243 174.366 20.5666V34.4211H166.919V21.3412C166.919 18.2432 165.806 16.0918 163.068 16.0918C161.098 16.0918 159.9 17.3827 159.301 18.6735C159.13 19.1038 159.044 19.7921 159.044 20.3085V34.3351H151.597V0H151.683Z" fill="#2AAC27"/>
<path id="Vector_8" d="M203.81 22.2887C203.81 30.98 197.647 34.9384 191.227 34.9384C184.294 34.9384 178.901 30.3777 178.901 22.719C178.901 15.0603 183.951 10.1553 191.656 10.1553C199.017 10.1553 203.81 15.1463 203.81 22.2887ZM186.605 22.5469C186.605 26.5914 188.317 29.6892 191.485 29.6892C194.395 29.6892 196.192 26.8496 196.192 22.5469C196.192 19.0187 194.823 15.4906 191.485 15.4906C187.974 15.4045 186.605 19.0187 186.605 22.5469Z" fill="#2AAC27"/>
<path id="Vector_9" d="M208.432 18.6745C208.432 15.5766 208.347 12.909 208.261 10.6716H214.682L215.023 14.0277H215.109C216.906 11.5321 219.561 10.1553 223.07 10.1553C228.291 10.1553 233 14.63 233 22.2026C233 30.808 227.435 34.8524 222.129 34.8524C219.303 34.8524 216.992 33.7337 215.965 32.1848H215.879V43.9741H208.432V18.6745ZM215.879 24.2679C215.879 24.7843 215.965 25.3006 216.05 25.8169C216.564 27.7961 218.276 29.345 220.417 29.345C223.583 29.345 225.552 26.6774 225.552 22.6329C225.552 18.8466 223.841 16.0069 220.588 16.0069C218.447 16.0069 216.564 17.5559 216.136 19.7072C216.05 20.1374 215.965 20.5677 215.965 20.9979V24.2679H215.879Z" fill="#2AAC27"/>
</g>
<defs>
<clipPath id="clip0_15513_7477">
<rect width="233" height="44" fill="white"/>
</clipPath>
</defs>
</svg>
