<svg width="21" height="14" viewBox="0 0 21 14" fill="none" xmlns="http://www.w3.org/2000/svg">
<path d="M19.6758 2.64453C20.0977 4.12109 20.0977 7.28516 20.0977 7.28516C20.0977 7.28516 20.0977 10.4141 19.6758 11.9258C19.4648 12.7695 18.7969 13.4023 17.9883 13.6133C16.4766 14 10.5 14 10.5 14C10.5 14 4.48828 14 2.97656 13.6133C2.16797 13.4023 1.5 12.7695 1.28906 11.9258C0.867188 10.4141 0.867188 7.28516 0.867188 7.28516C0.867188 7.28516 0.867188 4.12109 1.28906 2.64453C1.5 1.80078 2.16797 1.13281 2.97656 0.921875C4.48828 0.5 10.5 0.5 10.5 0.5C10.5 0.5 16.4766 0.5 17.9883 0.921875C18.7969 1.13281 19.4648 1.80078 19.6758 2.64453ZM8.53125 10.1328L13.5234 7.28516L8.53125 4.4375V10.1328Z" fill="#25252E"/>
</svg>
